mtllib Plafond E2.mtl
g Part 1
usemtl 0.615686_0.811765_0.929412_0.000000_0.000000
o mesh0
v 0.143288 0.00439325 0.00254 
v 0.143288 0.00439325 0 
v 0.150842 0.00439325 0 
v 0.150842 0.00439325 0.00254 
vn 0 -1 0 
vn 0 -1 0 
vn 0 -1 0 
vn 0 -1 0 
f 1//1 2//2 3//3 
f 3//3 4//4 1//1 
o mesh1
v 0.150842 0.00439325 0.00254 
v 0.150842 0.00439325 0 
v 0.150842 0.0204535 0 
v 0.150842 0.0204535 0.00254 
vn 1 0 0 
vn 1 0 0 
vn 1 0 0 
vn 1 0 0 
f 5//5 6//6 7//7 
f 7//7 8//8 5//5 
o mesh2
v 0.150842 0.0204535 0.00254 
v 0.150842 0.0204535 0 
v 0.00256403 0.0204535 0 
v 0.00256403 0.0204535 0.00254 
vn 0 1 0 
vn 0 1 0 
vn 0 1 0 
vn 0 1 0 
f 9//9 10//10 11//11 
f 11//11 12//12 9//9 
o mesh3
v 0.00256403 0.0204535 0.00254 
v 0.00256403 0.0204535 0 
v 0.00256403 0.00439325 0 
v 0.00256403 0.00439325 0.00254 
vn -1 0 0 
vn -1 0 0 
vn -1 0 0 
vn -1 0 0 
f 13//13 14//14 15//15 
f 15//15 16//16 13//13 
o mesh4
v 0.00256403 0.00439325 0.00254 
v 0.00256403 0.00439325 0 
v -0.00760136 0.00439325 0 
v -0.00760136 0.00439325 0.00254 
vn 0 1 0 
vn 0 1 0 
vn 0 1 0 
vn 0 1 0 
f 17//17 18//18 19//19 
f 19//19 20//20 17//17 
o mesh5
v -0.00760136 0.00439325 0.00254 
v -0.00760136 0.00439325 0 
v -0.00760136 0.0174515 0 
v -0.00760136 0.0174515 0.00254 
vn 1 0 0 
vn 1 0 0 
vn 1 0 0 
vn 1 0 0 
f 21//21 22//22 23//23 
f 23//23 24//24 21//21 
o mesh6
v -0.00760136 0.0174515 0.00254 
v -0.00760136 0.0174515 0 
v -0.0266156 0.0174515 0 
v -0.0266156 0.0174515 0.00254 
vn 0 1 0 
vn 0 1 0 
vn 0 1 0 
vn 0 1 0 
f 25//25 26//26 27//27 
f 27//27 28//28 25//25 
o mesh7
v -0.0266156 0.0174515 0.00254 
v -0.0266156 0.0174515 0 
v -0.041953 0.00841934 0 
v -0.041953 0.00841934 0.00254 
vn -0.507443 0.861685 0 
vn -0.507443 0.861685 0 
vn -0.507443 0.861685 0 
vn -0.507443 0.861685 0 
f 29//29 30//30 31//31 
f 31//31 32//32 29//29 
o mesh8
v -0.041953 0.00841934 0.00254 
v -0.041953 0.00841934 0 
v -0.041953 0.00594051 0 
v -0.041953 0.00594051 0.00254 
vn -1 0 0 
vn -1 0 0 
vn -1 0 0 
vn -1 0 0 
f 33//33 34//34 35//35 
f 35//35 36//36 33//33 
o mesh9
v -0.041953 0.00594051 0.00254 
v -0.041953 0.00594051 0 
v -0.033628 0.00594051 0 
v -0.033628 0.00594051 0.00254 
vn 0 -1 0 
vn 0 -1 0 
vn 0 -1 0 
vn 0 -1 0 
f 37//37 38//38 39//39 
f 39//39 40//40 37//37 
o mesh10
v -0.033628 0.00594051 0.00254 
v -0.033628 0.00594051 0 
v -0.033628 -0.00152942 0 
v -0.033628 -0.00152942 0.00254 
vn -1 0 0 
vn -1 0 0 
vn -1 0 0 
vn -1 0 0 
f 41//41 42//42 43//43 
f 43//43 44//44 41//41 
o mesh11
v -0.033628 -0.00152942 0.00254 
v -0.033628 -0.00152942 0 
v -0.0661437 -0.00152942 0 
v -0.0661437 -0.00152942 0.00254 
vn 0 1 0 
vn 0 1 0 
vn 0 1 0 
vn 0 1 0 
f 45//45 46//46 47//47 
f 47//47 48//48 45//45 
o mesh12
v -0.0661437 -0.00152942 0.00254 
v -0.0661437 -0.00152942 0 
v -0.0661437 -0.00604241 0 
v -0.0661437 -0.00604241 0.00254 
vn -1 0 0 
vn -1 0 0 
vn -1 0 0 
vn -1 0 0 
f 49//49 50//50 51//51 
f 51//51 52//52 49//49 
o mesh13
v -0.0661437 -0.00604241 0.00254 
v -0.0661437 -0.00604241 0 
v -0.0734395 -0.00604241 0 
v -0.0734395 -0.00604241 0.00254 
vn 0 1 0 
vn 0 1 0 
vn 0 1 0 
vn 0 1 0 
f 53//53 54//54 55//55 
f 55//55 56//56 53//53 
o mesh14
v -0.0734395 -0.00604241 0.00254 
v -0.0734395 -0.00604241 0 
v -0.0988111 -0.0213042 0 
v -0.0988111 -0.0213042 0.00254 
vn -0.515461 0.856913 0 
vn -0.515461 0.856913 0 
vn -0.515461 0.856913 0 
vn -0.515461 0.856913 0 
f 57//57 58//58 59//59 
f 59//59 60//60 57//57 
o mesh15
v -0.0988111 -0.0213042 0.00254 
v -0.0988111 -0.0213042 0 
v -0.00771304 -0.0213042 0 
v -0.00771304 -0.0213042 0.00254 
vn -0 -1 -0 
vn -0 -1 -0 
vn -0 -1 -0 
vn -0 -1 -0 
f 61//61 62//62 63//63 
f 63//63 64//64 61//61 
o mesh16
v -0.00771304 -0.0213042 0.00254 
v -0.00771304 -0.0213042 0 
v -0.00771304 -0.0059914 0 
v -0.00771304 -0.0059914 0.00254 
vn 1 -0 -0 
vn 1 -0 -0 
vn 1 -0 -0 
vn 1 -0 -0 
f 65//65 66//66 67//67 
f 67//67 68//68 65//65 
o mesh17
v -0.00771304 -0.0059914 0.00254 
v -0.00771304 -0.0059914 0 
v -0.0102705 -0.0059914 0 
v -0.0102705 -0.0059914 0.00254 
vn -0 1 -0 
vn -0 1 -0 
vn -0 1 -0 
vn -0 1 -0 
f 69//69 70//70 71//71 
f 71//71 72//72 69//69 
o mesh18
v -0.0102705 -0.0059914 0.00254 
v -0.0102705 -0.0059914 0 
v -0.0102705 -0.00130953 0 
v -0.0102705 -0.00130953 0.00254 
vn 1 -0 -0 
vn 1 -0 -0 
vn 1 -0 -0 
vn 1 -0 -0 
f 73//73 74//74 75//75 
f 75//75 76//76 73//73 
o mesh19
v -0.0102705 -0.00130953 0.00254 
v -0.0102705 -0.00130953 0 
v -0.00772728 -0.00130953 0 
v -0.00772728 -0.00130953 0.00254 
vn -0 -1 -0 
vn -0 -1 -0 
vn -0 -1 -0 
vn -0 -1 -0 
f 77//77 78//78 79//79 
f 79//79 80//80 77//77 
o mesh20
v -0.00772728 -0.00130953 0.00254 
v -0.00772728 -0.00130953 0 
v -0.00772728 -0.000673723 0 
v -0.00772728 -0.000673723 0.00254 
vn 1 -0 -0 
vn 1 -0 -0 
vn 1 -0 -0 
vn 1 -0 -0 
f 81//81 82//82 83//83 
f 83//83 84//84 81//81 
o mesh21
v -0.00772728 -0.000673723 0.00254 
v -0.00772728 -0.000673723 0 
v 0.018525 -0.000673723 0 
v 0.018525 -0.000673723 0.00254 
vn -0 -1 -0 
vn -0 -1 -0 
vn -0 -1 -0 
vn -0 -1 -0 
f 85//85 86//86 87//87 
f 87//87 88//88 85//85 
o mesh22
v 0.018525 -0.000673723 0.00254 
v 0.018525 -0.000673723 0 
v 0.018569 -0.00176037 0 
v 0.018569 -0.00176037 0.00254 
vn -0.999181 -0.0404612 -0 
vn -0.999181 -0.0404612 -0 
vn -0.999181 -0.0404612 -0 
vn -0.999181 -0.0404612 -0 
f 89//89 90//90 91//91 
f 91//91 92//92 89//89 
o mesh23
v 0.018569 -0.00176037 0.00254 
v 0.018569 -0.00176037 0 
v 0.0530805 -0.00176037 0 
v 0.0530805 -0.00176037 0.00254 
vn 0 -1 0 
vn 0 -1 0 
vn 0 -1 0 
vn 0 -1 0 
f 93//93 94//94 95//95 
f 95//95 96//96 93//93 
o mesh24
v 0.0530805 -0.00176037 0.00254 
v 0.0530805 -0.00176037 0 
v 0.0530805 -0.00952159 0 
v 0.0530805 -0.00952159 0.00254 
vn -1 0 0 
vn -1 0 0 
vn -1 0 0 
vn -1 0 0 
f 97//97 98//98 99//99 
f 99//99 100//100 97//97 
o mesh25
v 0.0530805 -0.00952159 0.00254 
v 0.0530805 -0.00952159 0 
v 0.0677191 -0.00952159 0 
v 0.0677191 -0.00952159 0.00254 
vn 0 -1 0 
vn 0 -1 0 
vn 0 -1 0 
vn 0 -1 0 
f 101//101 102//102 103//103 
f 103//103 104//104 101//101 
o mesh26
v 0.0677191 -0.00952159 0.00254 
v 0.0677191 -0.00952159 0 
v 0.0677191 -0.00791818 0 
v 0.0677191 -0.00791818 0.00254 
vn 1 0 0 
vn 1 0 0 
vn 1 0 0 
vn 1 0 0 
f 105//105 106//106 107//107 
f 107//107 108//108 105//105 
o mesh27
v 0.0677191 -0.00791818 0.00254 
v 0.0677191 -0.00791818 0 
v 0.084674 -0.00791818 0 
v 0.084674 -0.00791818 0.00254 
vn 0 -1 0 
vn 0 -1 0 
vn 0 -1 0 
vn 0 -1 0 
f 109//109 110//110 111//111 
f 111//111 112//112 109//109 
o mesh28
v 0.084674 -0.00791818 0.00254 
v 0.084674 -0.00791818 0 
v 0.084674 0 0 
v 0.084674 0 0.00254 
vn 1 0 0 
vn 1 0 0 
vn 1 0 0 
vn 1 0 0 
f 113//113 114//114 115//115 
f 115//115 116//116 113//113 
o mesh29
v 0.084674 0 0.00254 
v 0.084674 0 0 
v 0.0998756 0 0 
v 0.0998756 0 0.00254 
vn 0 -1 0 
vn 0 -1 0 
vn 0 -1 0 
vn 0 -1 0 
f 117//117 118//118 119//119 
f 119//119 120//120 117//117 
o mesh30
v 0.0998756 0 0.00254 
v 0.0998756 0 0 
v 0.0998756 -0.00231495 0 
v 0.0998756 -0.00231495 0.00254 
vn -1 0 0 
vn -1 0 0 
vn -1 0 0 
vn -1 0 0 
f 121//121 122//122 123//123 
f 123//123 124//124 121//121 
o mesh31
v 0.0998756 -0.00231495 0.00254 
v 0.0998756 -0.00231495 0 
v 0.134696 -0.00231495 0 
v 0.134696 -0.00231495 0.00254 
vn 0 -1 0 
vn 0 -1 0 
vn 0 -1 0 
vn 0 -1 0 
f 125//125 126//126 127//127 
f 127//127 128//128 125//125 
o mesh32
v -0.00760136 0.00439325 0.00254 
v -0.00760136 0.0174515 0.00254 
v -0.0266156 0.0174515 0.00254 
v -0.033628 -0.00152942 0.00254 
v -0.0102705 -0.0059914 0.00254 
v -0.0102705 -0.00130953 0.00254 
v -0.033628 0.00594051 0.00254 
v -0.00771304 -0.0213042 0.00254 
v 0.150842 0.0204535 0.00254 
v 0.0998756 0 0.00254 
v 0.143288 0.00439325 0.00254 
v 0.134696 0 0.00254 
v -0.0988111 -0.0213042 0.00254 
v -0.0661437 -0.00604241 0.00254 
v -0.00772728 -0.000673723 0.00254 
v 0.018525 -0.000673723 0.00254 
v 0.00256403 0.00439325 0.00254 
v 0.143288 0 0.00254 
v 0.134696 -0.00231495 0.00254 
v -0.0661437 -0.00152942 0.00254 
v -0.00771304 -0.0059914 0.00254 
v 0.0998756 -0.00231495 0.00254 
v 0.00256403 0.0204535 0.00254 
v 0.084674 0 0.00254 
v -0.041953 0.00841934 0.00254 
v -0.041953 0.00594051 0.00254 
v 0.0530805 -0.00176037 0.00254 
v -0.00772728 -0.00130953 0.00254 
v 0.0677191 -0.00791818 0.00254 
v 0.0530805 -0.00952159 0.00254 
v 0.0677191 -0.00952159 0.00254 
v 0.084674 -0.00791818 0.00254 
v 0.018569 -0.00176037 0.00254 
v 0.150842 0.00439325 0.00254 
v -0.0734395 -0.00604241 0.00254 
vn 0 0 1 
vn 0 0 1 
vn 0 0 1 
vn 0 0 1 
vn 0 0 1 
vn 0 0 1 
vn 0 0 1 
vn 0 0 1 
vn 0 0 1 
vn 0 0 1 
vn 0 0 1 
vn 0 0 1 
vn 0 0 1 
vn 0 0 1 
vn 0 0 1 
vn 0 0 1 
vn 0 0 1 
vn 0 0 1 
vn 0 0 1 
vn 0 0 1 
vn 0 0 1 
vn 0 0 1 
vn 0 0 1 
vn 0 0 1 
vn 0 0 1 
vn 0 0 1 
vn 0 0 1 
vn 0 0 1 
vn 0 0 1 
vn 0 0 1 
vn 0 0 1 
vn 0 0 1 
vn 0 0 1 
vn 0 0 1 
vn 0 0 1 
f 129//129 130//130 131//131 
f 132//132 133//133 134//134 
f 135//135 134//134 129//129 
f 132//132 136//136 133//133 
f 137//137 138//138 139//139 
f 139//139 138//138 140//140 
f 141//141 136//136 142//142 
f 142//142 136//136 132//132 
f 134//134 135//135 132//132 
f 143//143 144//144 145//145 
f 140//140 146//146 139//139 
f 147//147 140//140 138//138 
f 132//132 148//148 142//142 
f 136//136 149//149 133//133 
f 145//145 129//129 143//143 
f 138//138 150//150 147//147 
f 137//137 151//151 152//152 
f 131//131 135//135 129//129 
f 153//153 154//154 135//135 
f 144//144 155//155 145//145 
f 134//134 156//156 143//143 
f 152//152 138//138 137//137 
f 152//152 151//151 157//157 
f 158//158 159//159 157//157 
f 151//151 145//145 155//155 
f 135//135 131//131 153//153 
f 143//143 129//129 134//134 
f 157//157 160//160 152//152 
f 155//155 157//157 151//151 
f 144//144 161//161 155//155 
f 157//157 155//155 158//158 
f 139//139 162//162 137//137 
f 142//142 163//163 141//141 
o mesh33
v -0.033628 -0.00152942 0 
v -0.033628 0.00594051 0 
v -0.0102705 -0.00130953 0 
v -0.041953 0.00841934 0 
v -0.0266156 0.0174515 0 
v -0.0102705 -0.0059914 0 
v -0.0661437 -0.00604241 0 
v -0.0661437 -0.00152942 0 
v 0.00256403 0.0204535 0 
v 0.0677191 -0.00791818 0 
v 0.0530805 -0.00176037 0 
v -0.0988111 -0.0213042 0 
v -0.0734395 -0.00604241 0 
v 0.00256403 0.00439325 0 
v 0.018525 -0.000673723 0 
v -0.00771304 -0.0213042 0 
v 0.018569 -0.00176037 0 
v -0.00772728 -0.000673723 0 
v -0.00760136 0.00439325 0 
v -0.041953 0.00594051 0 
v -0.00760136 0.0174515 0 
v -0.00772728 -0.00130953 0 
v 0.0530805 -0.00952159 0 
v 0.0677191 -0.00952159 0 
v 0.084674 0 0 
v 0.084674 -0.00791818 0 
v 0.134696 0 0 
v 0.0998756 0 0 
v 0.0998756 -0.00231495 0 
v 0.134696 -0.00231495 0 
v 0.143288 0.00439325 0 
v 0.143288 0 0 
v 0.150842 0.0204535 0 
v 0.150842 0.00439325 0 
v -0.00771304 -0.0059914 0 
vn -0 -0 -1 
vn -0 -0 -1 
vn -0 -0 -1 
vn -0 -0 -1 
vn -0 -0 -1 
vn -0 -0 -1 
vn -0 -0 -1 
vn -0 -0 -1 
vn -0 -0 -1 
vn -0 -0 -1 
vn -0 -0 -1 
vn -0 -0 -1 
vn -0 -0 -1 
vn -0 -0 -1 
vn -0 -0 -1 
vn -0 -0 -1 
vn -0 -0 -1 
vn -0 -0 -1 
vn -0 -0 -1 
vn -0 -0 -1 
vn -0 -0 -1 
vn -0 -0 -1 
vn -0 -0 -1 
vn -0 -0 -1 
vn -0 -0 -1 
vn -0 -0 -1 
vn -0 -0 -1 
vn -0 -0 -1 
vn -0 -0 -1 
vn -0 -0 -1 
vn -0 -0 -1 
vn -0 -0 -1 
vn -0 -0 -1 
vn -0 -0 -1 
vn -0 -0 -1 
f 164//164 165//165 166//166 
f 167//167 168//168 165//165 
f 166//166 169//169 164//164 
f 165//165 168//168 166//166 
f 170//170 171//171 164//164 
f 172//172 173//173 174//174 
f 164//164 169//169 170//170 
f 175//175 176//176 170//170 
f 174//174 177//177 172//172 
f 174//174 178//178 177//177 
f 179//179 175//175 169//169 
f 170//170 169//169 175//175 
f 174//174 180//180 178//178 
f 181//181 182//182 177//177 
f 165//165 183//183 167//167 
f 166//166 168//168 181//181 
f 177//177 178//178 181//181 
f 168//168 184//184 182//182 
f 181//181 185//185 166//166 
f 182//182 181//181 168//168 
f 186//186 174//174 173//173 
f 173//173 187//187 186//186 
f 188//188 189//189 173//173 
f 173//173 172//172 188//188 
f 172//172 190//190 191//191 
f 191//191 188//188 172//172 
f 192//192 191//191 190//190 
f 190//190 193//193 192//192 
f 194//194 195//195 190//190 
f 190//190 172//172 194//194 
f 196//196 197//197 194//194 
f 194//194 172//172 196//196 
f 169//169 198//198 179//179 
o mesh34
v 0.134696 -0.00231495 0.00254 
v 0.134696 -0.00231495 0 
v 0.134696 0 0 
v 0.134696 0 0.00254 
vn 1 0 0 
vn 1 0 0 
vn 1 0 0 
vn 1 0 0 
f 199//199 200//200 201//201 
f 201//201 202//202 199//199 
o mesh35
v 0.134696 0 0.00254 
v 0.134696 0 0 
v 0.143288 0 0 
v 0.143288 0 0.00254 
vn 0 -1 0 
vn 0 -1 0 
vn 0 -1 0 
vn 0 -1 0 
f 203//203 204//204 205//205 
f 205//205 206//206 203//203 
o mesh36
v 0.143288 0 0.00254 
v 0.143288 0 0 
v 0.143288 0.00439325 0 
v 0.143288 0.00439325 0.00254 
vn 1 0 0 
vn 1 0 0 
vn 1 0 0 
vn 1 0 0 
f 207//207 208//208 209//209 
f 209//209 210//210 207//207 
